HIERARCHY
ROOT joint_Root
{
	OFFSET 0.0 0.0 0.0
	CHANNELS 6 Xposition Yposition Zposition Zrotation Xrotation Yrotation 
	JOINT Hips
	{
		OFFSET -17.1583 93.1646 452.98
		CHANNELS 6 Xposition Yposition Zposition Zrotation Xrotation Yrotation 
		JOINT Spine
		{
			OFFSET 15.7357 0.0 0.0
			CHANNELS 6 Xposition Yposition Zposition Zrotation Xrotation Yrotation 
			JOINT Chest
			{
				OFFSET 8.98455 -0.406207 0.0
				CHANNELS 6 Xposition Yposition Zposition Zrotation Xrotation Yrotation 
				JOINT Neck
				{
					OFFSET 16.3773 0.0 0.0
					CHANNELS 6 Xposition Yposition Zposition Zrotation Xrotation Yrotation 
					JOINT Head
					{
						OFFSET 6.45672 0.0 0.0
						CHANNELS 6 Xposition Yposition Zposition Zrotation Xrotation Yrotation 
						End Site
						{
							OFFSET 0.0 0.0 0.0
						}
					}
				}
				JOINT Shoulder_L
				{
					OFFSET 12.9942 -0.242716 4.98039
					CHANNELS 6 Xposition Yposition Zposition Zrotation Xrotation Yrotation 
					JOINT UpperArm_L
					{
						OFFSET 5.34809 0.0 0.0
						CHANNELS 6 Xposition Yposition Zposition Zrotation Xrotation Yrotation 
						JOINT LowerArm_L
						{
							OFFSET 24.3286 1.87007e-05 0.0
							CHANNELS 6 Xposition Yposition Zposition Zrotation Xrotation Yrotation 
							JOINT Hand_L
							{
								OFFSET 22.2916 0.0 0.0
								CHANNELS 6 Xposition Yposition Zposition Zrotation Xrotation Yrotation 
								End Site
								{
									OFFSET 0.0 0.0 0.0
								}
							}
						}
					}
				}
				JOINT Shoulder_R
				{
					OFFSET 12.9945 -0.242716 -4.98039
					CHANNELS 6 Xposition Yposition Zposition Zrotation Xrotation Yrotation 
					JOINT UpperArm_R
					{
						OFFSET -5.34813 0.0 0.0
						CHANNELS 6 Xposition Yposition Zposition Zrotation Xrotation Yrotation 
						JOINT LowerArm_R
						{
							OFFSET -24.3289 0.000322201 0.0
							CHANNELS 6 Xposition Yposition Zposition Zrotation Xrotation Yrotation 
							JOINT Hand_R
							{
								OFFSET -22.2915 -0.000108084 0.0
								CHANNELS 6 Xposition Yposition Zposition Zrotation Xrotation Yrotation 
								End Site
								{
									OFFSET 0.0 0.0 0.0
								}
							}
						}
					}
				}
			}
		}
		JOINT UpperLeg_L
		{
			OFFSET -2.19248 -6.46944 0.0
			CHANNELS 6 Xposition Yposition Zposition Zrotation Xrotation Yrotation 
			JOINT LowerLeg_L
			{
				OFFSET 39.0811 0.0 -1.23785e-05
				CHANNELS 6 Xposition Yposition Zposition Zrotation Xrotation Yrotation 
				JOINT Foot_L
				{
					OFFSET 40.9854 0.0 -1.26872e-05
					CHANNELS 6 Xposition Yposition Zposition Zrotation Xrotation Yrotation 
					JOINT Toes_L
					{
						OFFSET 11.7543 0.0 0.0
						CHANNELS 6 Xposition Yposition Zposition Zrotation Xrotation Yrotation 
						End Site
						{
							OFFSET 0.0 0.0 0.0
						}
					}
				}
			}
		}
		JOINT UpperLeg_R
		{
			OFFSET -2.19251 6.46944 0.0
			CHANNELS 6 Xposition Yposition Zposition Zrotation Xrotation Yrotation 
			JOINT LowerLeg_R
			{
				OFFSET -39.0811 -0.00228153 -0.0401928
				CHANNELS 6 Xposition Yposition Zposition Zrotation Xrotation Yrotation 
				JOINT Foot_R
				{
					OFFSET -40.9854 0.0 0.0
					CHANNELS 6 Xposition Yposition Zposition Zrotation Xrotation Yrotation 
					JOINT Toes_R
					{
						OFFSET -11.7543 0.0 0.0
						CHANNELS 6 Xposition Yposition Zposition Zrotation Xrotation Yrotation 
						End Site
						{
							OFFSET 0.0 0.0 0.0
						}
					}
				}
			}
		}
	}
}
MOTION
Frames:	4
Frame Time:	0.0333333
0.000000 0.000000 0.000000 0.000000 0.000000 -0.000000 -1.729530 93.422900 -5.098390 87.515000 -0.102200 1.656680 15.735700 0.000005 -0.000001 87.774000 87.096800 -86.214700 8.984550 -0.406207 -0.000000 -1.957340 -0.357724 3.112000 16.377300 -0.000001 -0.000001 0.257780 2.014600 -0.768627 6.456720 -0.000001 -0.000000 1.348430 1.944240 -0.928292 12.994200 -0.242716 4.980390 -92.558100 7.878430 -71.947600 5.348090 -0.000007 -0.000001 -71.871300 23.184300 -4.092830 24.328600 0.000019 0.000005 7.099070 24.664600 -16.617100 22.291600 -0.000001 0.000005 -11.523600 5.072140 5.743080 12.994500 -0.242716 -4.980390 88.854600 4.247590 -74.893400 -5.348130 -0.000001 -0.000004 -70.943300 23.936500 -6.356530 -24.328900 0.000322 -0.000009 0.690924 4.273370 -9.207570 -22.291500 -0.000108 -0.000004 -12.041100 5.180010 3.215990 -2.192480 -6.469440 -0.000000 -172.180000 -6.176170 -4.182030 39.081100 -0.000007 -0.000012 0.009071 -0.031112 16.255100 40.985400 -0.000006 -0.000013 -2.347760 12.532900 -66.638600 11.754300 -0.000000 0.000003 0.000272 0.162919 -9.969150 -2.192510 6.469440 -0.000001 179.568000 6.736300 177.473000 -39.081100 -0.002282 -0.040193 0.046984 -0.181342 13.534400 -40.985400 0.000008 0.000006 -3.377810 3.426220 -66.599500 -11.754300 -0.000006 -0.000006 -0.008113 0.256621 -6.151180
0.000000 0.000000 0.000000 0.000000 0.000000 -0.000000 -1.649130 93.433000 -4.838160 87.553700 0.024198 1.383880 15.735700 0.000005 -0.000001 87.682500 87.258400 -86.136900 8.984550 -0.406207 -0.000000 -2.280730 -0.357101 3.083730 16.377300 -0.000001 -0.000001 -0.490765 1.985310 -0.624572 6.456720 -0.000001 -0.000000 0.807891 1.955180 -1.237820 12.994200 -0.242716 4.980390 -92.520300 7.688700 -71.789600 5.348090 -0.000007 -0.000001 -69.991600 20.484000 -6.494730 24.328600 0.000019 0.000005 6.466850 26.619000 -14.197300 22.291600 -0.000001 0.000005 -15.292600 5.129440 4.426090 12.994500 -0.242716 -4.980390 88.934700 3.873120 -74.607700 -5.348130 -0.000001 -0.000004 -69.431100 21.463200 -8.346350 -24.328900 0.000322 -0.000009 0.732752 5.891630 -7.113090 -22.291500 -0.000108 -0.000004 -13.303500 5.158490 3.739840 -2.192480 -6.469440 -0.000000 -172.277000 -6.243870 -4.208190 39.081100 -0.000007 -0.000012 0.011451 -0.039645 16.111300 40.985400 -0.000006 -0.000013 -2.272690 12.692000 -66.882300 11.754300 -0.000000 0.000003 0.000054 0.166706 -9.815340 -2.192510 6.469440 -0.000001 179.444000 6.880110 177.474000 -39.081100 -0.002282 -0.040193 0.043889 -0.170468 13.382400 -40.985400 0.000008 0.000006 -3.780850 3.491950 -66.693900 -11.754300 -0.000006 -0.000006 -0.008052 0.256125 -6.171410
0.000000 0.000000 0.000000 0.000000 0.000000 -0.000000 -1.552230 93.414700 -4.478660 87.586800 0.176300 1.165630 15.735700 0.000005 -0.000001 87.844300 87.496900 -86.328400 8.984550 -0.406207 -0.000000 -2.757330 -0.327383 3.024110 16.377300 -0.000001 -0.000001 -1.219000 1.858390 -0.537221 6.456720 -0.000001 -0.000000 0.296826 1.863330 -1.406720 12.994200 -0.242716 4.980390 -92.361400 7.058350 -71.448900 5.348090 -0.000007 -0.000001 -67.320200 16.294200 -9.498800 24.328600 0.000019 0.000005 5.835400 29.508300 -11.722400 22.291600 -0.000001 0.000005 -20.711800 5.173530 3.371320 12.994500 -0.242716 -4.980390 89.092500 3.193440 -74.127100 -5.348130 -0.000001 -0.000004 -67.243700 17.322400 -10.545300 -24.328900 0.000322 -0.000009 0.682825 7.416820 -5.283000 -22.291500 -0.000108 -0.000004 -15.039500 5.131830 4.375340 -2.192480 -6.469440 -0.000000 -172.369000 -6.332880 -4.239820 39.081100 -0.000007 -0.000012 0.013001 -0.044841 16.169300 40.985400 -0.000006 -0.000013 -2.143690 12.889500 -67.100400 11.754300 -0.000000 0.000003 0.000025 0.167210 -9.794870 -2.192510 6.469440 -0.000001 179.315000 7.079610 177.540000 -39.081100 -0.002282 -0.040193 0.043831 -0.170760 13.342000 -40.985400 0.000008 0.000006 -3.869180 3.604700 -66.874900 -11.754300 -0.000006 -0.000006 -0.008169 0.257070 -6.132810
0.000000 0.000000 0.000000 0.000000 0.000000 -0.000000 -1.436860 93.399700 -3.973280 87.664100 0.307392 0.996385 15.735700 0.000005 -0.000001 88.356300 87.803200 -86.917400 8.984550 -0.406207 -0.000000 -3.369230 -0.265719 2.870810 16.377300 -0.000001 -0.000001 -1.917630 1.685550 -0.495029 6.456720 -0.000001 -0.000000 -0.138365 1.643170 -1.499920 12.994200 -0.242716 4.980390 -92.113900 6.178300 -71.070000 5.348090 -0.000007 -0.000001 -63.444300 10.635700 -12.789300 24.328600 0.000019 0.000005 5.222340 32.328800 -9.698830 22.291600 -0.000001 0.000005 -25.219600 5.190980 2.945000 12.994500 -0.242716 -4.980390 89.341900 2.239290 -73.618100 -5.348130 -0.000001 -0.000004 -64.122800 11.956200 -13.009000 -24.328900 0.000322 -0.000009 0.468678 7.527960 -3.580620 -22.291500 -0.000108 -0.000004 -16.790100 5.102000 5.068070 -2.192480 -6.469440 -0.000000 -172.504000 -6.287480 -4.020850 39.081100 -0.000007 -0.000012 0.015023 -0.052231 16.047200 40.985400 -0.000006 -0.000013 -2.032270 12.935600 -67.328400 11.754300 -0.000000 0.000003 0.000055 0.166689 -9.816040 -2.192510 6.469440 -0.000001 179.083000 7.383100 177.787000 -39.081100 -0.002282 -0.040193 0.041420 -0.161638 13.258800 -40.985400 0.000008 0.000006 -4.226130 3.842240 -67.085100 -11.754300 -0.000006 -0.000006 -0.008145 0.256883 -6.140440
